<svg viewBox="52 24 1216 544" role="img" aria-label="RL training architecture: a US trainer cluster with data buffer, rollout manager and trainer syncs compressed weight deltas through cloud storage to inference rollout clusters on three continents" class="block h-auto w-full min-w-[720px]"><defs><marker id="rl-arrow-ink" viewBox="0 0 10 10" refX="8.5" refY="5" markerWidth="7" markerHeight="7" orient="auto-start-reverse"><path d="M 0 0 L 10 5 L 0 10 z" fill="#1a1a1a"></path></marker><marker id="rl-arrow-orange" viewBox="0 0 10 10" refX="8.5" refY="5" markerWidth="7" markerHeight="7" orient="auto-start-reverse"><path d="M 0 0 L 10 5 L 0 10 z" fill="#c2410c"></path></marker><marker id="rl-arrow-blue" viewBox="0 0 10 10" refX="8.5" refY="5" markerWidth="7" markerHeight="7" orient="auto-start-reverse"><path d="M 0 0 L 10 5 L 0 10 z" fill="#3b5bdb"></path></marker><marker id="rl-arrow-green" viewBox="0 0 10 10" refX="8.5" refY="5" markerWidth="7" markerHeight="7" orient="auto-start-reverse"><path d="M 0 0 L 10 5 L 0 10 z" fill="#1a7a4f"></path></marker></defs><text x="60" y="44" font-size="13" letter-spacing="2.5" fill="#3b5bdb" class="font-mono">TRAINER CLUSTER · US</text><text x="950" y="44" font-size="13" letter-spacing="2.5" fill="#1a7a4f" class="font-mono">ROLLOUT CLUSTERS · 3 CONTINENTS</text><line x1="925" y1="30" x2="925" y2="560" stroke="#8a8a8a" stroke-dasharray="4 5" opacity="0.6"></line><g><rect x="60" y="80" width="215" height="90" rx="10" fill="#f4f4f4" stroke="#dddddd"></rect><text x="78" y="116" font-size="18" fill="#1a1a1a" class="font-heading">Data buffer</text><text x="261" y="102" text-anchor="end" font-size="9.5" letter-spacing="1.5" fill="#8a8a8a" opacity="0.75" class="font-mono">STATE</text><text x="78" y="144" font-size="12" fill="#8a8a8a" class="font-heading">prompts in · scored data out</text></g><g><rect x="430" y="80" width="230" height="90" rx="10" fill="#fbeee4" stroke="#f0d5c2"></rect><text x="448" y="116" font-size="18" fill="#c2410c" class="font-heading">Rollout Manager</text><text x="646" y="102" text-anchor="end" font-size="9.5" letter-spacing="1.5" fill="#c2410c" opacity="0.75" class="font-mono">CONTROL</text><text x="448" y="144" font-size="12" fill="#c2410c" opacity="0.85" class="font-heading">custom rollout generation</text></g><line x1="275" y1="110" x2="424" y2="110" stroke="#1a1a1a" stroke-width="1.6" marker-end="url(#rl-arrow-ink)"></line><text x="350" y="100" text-anchor="middle" font-size="13" font-weight="600" fill="#1a1a1a" class="font-heading">send init prompt</text><line x1="430" y1="148" x2="281" y2="148" stroke="#c2410c" stroke-width="1.6" marker-end="url(#rl-arrow-orange)"></line><text x="355" y="168" text-anchor="middle" font-size="13" font-weight="600" fill="#c2410c" class="font-heading">recv scored data</text><line x1="660" y1="110" x2="984" y2="110" stroke="#1a1a1a" stroke-width="1.6" marker-end="url(#rl-arrow-ink)"></line><text x="800" y="100" text-anchor="middle" font-size="13" font-weight="600" fill="#1a1a1a" class="font-heading">generation requests</text><line x1="130" y1="170" x2="130" y2="344" stroke="#1a1a1a" stroke-width="1.6" marker-end="url(#rl-arrow-ink)"></line><text x="142" y="262" font-size="13" font-weight="600" fill="#1a1a1a" class="font-heading">send train data</text><g><rect x="60" y="350" width="330" height="200" rx="10" fill="#eaf0fb" stroke="#cfdcf3"></rect><text x="78" y="382" font-size="18" fill="#3b5bdb" class="font-heading">Trainer</text><text x="376" y="374" text-anchor="end" font-size="9.5" letter-spacing="1.5" fill="#3b5bdb" opacity="0.75" class="font-mono">OPTIMIZE</text><g><rect x="78" y="396" width="62" height="136" rx="5" fill="#4263eb"></rect><text x="109" y="467" text-anchor="middle" font-size="9" letter-spacing="1.2" fill="#fff" class="font-mono">GPU</text></g><g><rect x="154" y="396" width="62" height="136" rx="5" fill="#4263eb"></rect><text x="185" y="467" text-anchor="middle" font-size="9" letter-spacing="1.2" fill="#fff" class="font-mono">GPU</text></g><g><rect x="230" y="396" width="62" height="136" rx="5" fill="#4263eb"></rect><text x="261" y="467" text-anchor="middle" font-size="9" letter-spacing="1.2" fill="#fff" class="font-mono">GPU</text></g><g><rect x="306" y="396" width="62" height="136" rx="5" fill="#4263eb"></rect><text x="337" y="467" text-anchor="middle" font-size="9" letter-spacing="1.2" fill="#fff" class="font-mono">GPU</text></g></g><path d="M 390 505 C 470 505, 480 440, 554 428" fill="none" stroke="#3b5bdb" stroke-width="1.8" marker-end="url(#rl-arrow-blue)"></path><text x="452" y="410" font-size="13" font-weight="600" fill="#3b5bdb" class="font-heading">write Δ weights</text><text x="452" y="428" font-size="12" fill="#8a8a8a" class="font-heading">XOR diff + zstd</text><g><rect x="560" y="390" width="230" height="80" rx="10" fill="#f4f4f4" stroke="#dddddd"></rect><text x="578" y="436" font-size="18" fill="#1a1a1a" class="font-heading">Cloud storage</text><text x="776" y="412" text-anchor="end" font-size="9.5" letter-spacing="1.5" fill="#8a8a8a" opacity="0.75" class="font-mono">SYNC</text></g><path d="M 790 415 C 940 415, 990 400, 1058 372" fill="none" stroke="#1a7a4f" stroke-width="1.8" marker-end="url(#rl-arrow-green)"></path><path d="M 790 445 C 990 448, 1140 425, 1198 372" fill="none" stroke="#1a7a4f" stroke-width="1.8" marker-end="url(#rl-arrow-green)"></path><text x="952" y="478" font-size="13" font-weight="600" fill="#1a7a4f" class="font-heading">pull Δ, apply in-place</text><g><rect x="990" y="80" width="270" height="60" rx="10" fill="#e9f4ee" stroke="#c4dccf"></rect><text x="1125" y="116" text-anchor="middle" font-size="18" fill="#1a7a4f" class="font-heading">Dynamo router</text></g><line x1="1060" y1="140" x2="1060" y2="152" stroke="#1a7a4f" stroke-width="1.5"></line><line x1="1198" y1="140" x2="1198" y2="152" stroke="#1a7a4f" stroke-width="1.5"></line><g><rect x="998" y="155" width="124" height="210" rx="10" fill="#e9f4ee" stroke="#c4dccf"></rect><text x="1012" y="181" font-size="14" fill="#1a7a4f" class="font-heading">Inference</text><text x="1110" y="181" text-anchor="end" font-size="9.5" letter-spacing="1.5" fill="#1a7a4f" opacity="0.75" class="font-mono">SERVE</text><g><rect x="1012" y="197" width="44" height="152" rx="5" fill="#2e9e6b"></rect><text x="1034" y="276" text-anchor="middle" font-size="9" letter-spacing="1.2" fill="#fff" class="font-mono">GPU</text></g><g><rect x="1064" y="197" width="44" height="152" rx="5" fill="#2e9e6b"></rect><text x="1086" y="276" text-anchor="middle" font-size="9" letter-spacing="1.2" fill="#fff" class="font-mono">GPU</text></g></g><g><rect x="1136" y="155" width="124" height="210" rx="10" fill="#e9f4ee" stroke="#c4dccf"></rect><text x="1150" y="181" font-size="14" fill="#1a7a4f" class="font-heading">Inference</text><text x="1248" y="181" text-anchor="end" font-size="9.5" letter-spacing="1.5" fill="#1a7a4f" opacity="0.75" class="font-mono">SERVE</text><g><rect x="1150" y="197" width="44" height="152" rx="5" fill="#2e9e6b"></rect><text x="1172" y="276" text-anchor="middle" font-size="9" letter-spacing="1.2" fill="#fff" class="font-mono">GPU</text></g><g><rect x="1202" y="197" width="44" height="152" rx="5" fill="#2e9e6b"></rect><text x="1224" y="276" text-anchor="middle" font-size="9" letter-spacing="1.2" fill="#fff" class="font-mono">GPU</text></g></g></svg>